<?xml version="1.0" standalone="no"?><!DOCTYPE svg PUBLIC "-//W3C//DTD SVG 1.1//EN" "http://www.w3.org/Graphics/SVG/1.1/DTD/svg11.dtd"><svg t="1600954227421" class="icon" viewBox="0 0 1069 1024" version="1.1" xmlns="http://www.w3.org/2000/svg" p-id="1179" xmlns:xlink="http://www.w3.org/1999/xlink" width="208.7890625" height="200"><defs><style type="text/css"></style></defs><path d="M1043.257313 477.764776L589.029254 23.536716a76.41791 76.41791 0 0 0-108.207761 0L26.593433 477.764776a45.850746 45.850746 0 0 0 7.488955 70.915821L106.985075 596.059701v382.089553a45.850746 45.850746 0 0 0 45.850746 45.850746h106.985075a30.567164 30.567164 0 0 0 30.567164-30.567164v-113.862687A50.588657 50.588657 0 0 1 336.238806 825.313433h397.373134a50.588657 50.588657 0 0 1 45.850747 54.256716V993.432836a30.567164 30.567164 0 0 0 30.567164 30.567164h106.985074a45.850746 45.850746 0 0 0 45.850747-45.850746V596.059701l72.902686-47.379104a45.850746 45.850746 0 0 0 7.488955-70.915821z" fill="#00A99D" p-id="1180"></path></svg>