<?xml version="1.0" standalone="no"?><!DOCTYPE svg PUBLIC "-//W3C//DTD SVG 1.1//EN" "http://www.w3.org/Graphics/SVG/1.1/DTD/svg11.dtd"><svg t="1601172079271" class="icon" viewBox="0 0 1024 1024" version="1.1" xmlns="http://www.w3.org/2000/svg" p-id="4556" xmlns:xlink="http://www.w3.org/1999/xlink" width="200" height="200"><defs><style type="text/css"></style></defs><path d="M1014.288782 129.308444a42.666667 42.666667 0 0 1 5.802667 45.141334L715.024782 829.610667a42.666667 42.666667 0 0 1-63.146666 16.952889l-234.666667-163.783112a42.666667 42.666667 0 0 1 48.839111-69.973333l193.024 134.741333 245.902222-528.099555L146.875449 408.462222l156.814222 104.248889a42.666667 42.666667 0 0 0 45.056 1.336889l235.719111-137.073778a42.666667 42.666667 0 1 1 42.922667 73.756445l-235.719111 137.102222a128 128 0 0 1-135.253334-4.039111L19.131449 425.984a42.666667 42.666667 0 0 1 13.312-76.942222l938.666667-233.984a42.666667 42.666667 0 0 1 43.207111 14.250666h-0.056889z" p-id="4557"></path><path d="M481.439004 686.876444a42.666667 42.666667 0 0 1 1.934223 60.302223l-153.514667 163.783111A42.666667 42.666667 0 0 1 256.045227 881.777778v-163.811556a42.666667 42.666667 0 1 1 85.333333 0v55.893334l79.786667-85.048889a42.666667 42.666667 0 0 1 60.302222-1.934223z" p-id="4558"></path></svg>